# xmcd CD database file
#
# Track frame offsets:
#	150
#	9660
#	36375
#	52560
#	72037
#	75090
#	103315
#	107877
#	135997
#	140042
#	162580
#	166165
#	189110
#	206212
#	233547
#	236305
#	260175
#	288320
#
# Disc length: 4198 seconds
#
# Revision: 3
# Processed by: cddbd v1.5PL3 Copyright (c) Steve Scherf et al.
# Submitted via: CDex 1.40Release
#
DISCID=ef106412
DTITLE=KAANA - KAANA
DYEAR=2001
DGENRE=R&B
TTITLE0=INTRODUCTION
TTITLE1=SAD SONG
TTITLE2=EMOTION
TTITLE3=DANCEHALL FIRE feat. MASTA SIMON(MIGHTY CROWN)
TTITLE4=INTERLUDE #1
TTITLE5=DEAR SWEET LOVE〜夜明けと落日に〜(Dawn Sky Version) feat. GORE-TEX
TTITLE6=INTERLUDE #2
TTITLE7=雨の日
TTITLE8=INTERLUDE #3
TTITLE9=青の世界
TTITLE10=INTERLUDE #4
TTITLE11=LIFE GOES AROUND (DANCEHALL MIX) feat. CRISS(FIRE BALL)
TTITLE12=TOGETHER〜このまま〜
TTITLE13=同じ夕陽
TTITLE14=KAANA'S DAWN
TTITLE15=そっと目を閉じて '01
TTITLE16=DEAR SWEET LOVE〜夜明けと落日に〜(Afterglow Version) feat. DABO
TTITLE17=SAD SONG REMIX(a.k.a MAD SONG) feat. KB and BB(THINK TANK)
EXTD=YEAR: 2001 ID3G: 14
EXTT0=
EXTT1=
EXTT2=
EXTT3=
EXTT4=
EXTT5=
EXTT6=
EXTT7=
EXTT8=
EXTT9=
EXTT10=
EXTT11=
EXTT12=
EXTT13=
EXTT14=
EXTT15=
EXTT16=
EXTT17=
PLAYORDER=
